<svg width="215" height="159" viewBox="0 0 215 159" fill="none" xmlns="http://www.w3.org/2000/svg">
<g clip-path="url(#clip0_799_88350)">
<path d="M194.474 156.318C217.353 138.935 227.542 90.7311 190.393 67.0939C165.8 51.4481 150.504 60.3735 122.836 50.0231C89.0599 37.391 84.0255 -0.775208 42.941 18.0046C21.1751 27.9505 6.08632 55.983 3.43182 87.8427C0.830317 119.043 11.8964 140.451 34.5102 155.1C87.6146 157.358 140.825 156.949 194.474 156.318Z" fill="#DFF3FC"/>
<path d="M100.484 19.2083C97.0296 33.0729 109.859 46.7979 123.382 52.4882C136.9 58.1833 152.403 57.5045 166.89 54.7893C173.138 53.6195 179.565 51.9731 184.416 47.9918C189.267 44.0106 192.086 37.0975 189.426 31.5132C187.08 26.5883 181.362 24.0658 175.913 22.7708C170.464 21.4758 164.674 20.9462 159.822 18.2214C155.217 15.6363 151.95 11.3565 147.947 7.96741C140.547 1.7139 130.155 -1.38638 120.539 0.592213C110.919 2.57081 103.427 7.42342 100.489 19.2083H100.484Z" fill="#DFF3FC"/>
<path d="M203.989 82.9809V72.491H200.01C199.533 70.6568 198.805 68.9286 197.871 67.3351L200.684 64.5188L193.26 57.1003L190.442 59.9118C188.847 58.9778 187.118 58.2509 185.282 57.7743V53.7979H174.785V57.7743C172.949 58.2509 171.22 58.9778 169.625 59.9118L166.807 57.1003L159.383 64.5188L162.196 67.3351C161.262 68.9286 160.539 70.6568 160.057 72.491H156.078V82.9809H160.057C160.539 84.8151 161.262 86.5433 162.196 88.1368L159.383 90.953L166.807 98.3716L169.625 95.5601C171.22 96.4941 172.949 97.2162 174.785 97.6976V101.674H185.282V97.6976C187.118 97.2162 188.847 96.4941 190.442 95.5601L193.26 98.3716L200.684 90.953L197.871 88.1368C198.805 86.5433 199.533 84.8151 200.01 82.9809H203.989ZM180.036 86.8226C175.011 86.8226 170.94 82.7546 170.94 77.7335C170.94 72.7124 175.011 68.6493 180.036 68.6493C185.061 68.6493 189.127 72.7173 189.127 77.7335C189.127 82.7498 185.056 86.8226 180.036 86.8226Z" fill="#A2C7EB"/>
<path d="M172.273 109.261L170.274 104.057L168.299 104.813C167.711 103.994 167.022 103.277 166.256 102.661L167.114 100.73L162.021 98.4631L161.159 100.394C160.191 100.235 159.193 100.201 158.191 100.312L157.435 98.3379L152.227 100.336L152.984 102.31C152.165 102.897 151.447 103.585 150.83 104.351L148.898 103.494L146.629 108.582L148.561 109.444C148.402 110.412 148.373 111.408 148.479 112.409L146.504 113.165L148.503 118.369L150.478 117.614C151.066 118.432 151.755 119.149 152.521 119.765L151.664 121.696L156.756 123.963L157.618 122.033C158.586 122.192 159.584 122.221 160.586 122.115L161.342 124.088L166.55 122.091L165.794 120.117C166.613 119.53 167.33 118.841 167.947 118.076L169.879 118.933L172.148 113.844L170.216 112.982C170.375 112.015 170.409 111.018 170.298 110.017L172.273 109.261ZM161.125 115.722C158.635 116.675 155.84 115.433 154.882 112.944C153.928 110.455 155.171 107.663 157.661 106.71C160.152 105.756 162.946 106.998 163.9 109.487C164.854 111.976 163.611 114.768 161.121 115.722H161.125Z" stroke="#A2C7EB" stroke-miterlimit="10"/>
<path d="M155.218 91.0158L153.869 87.5015L152.534 88.0118C152.139 87.4582 151.672 86.972 151.152 86.558L151.734 85.2533L148.295 83.7225L147.712 85.0271C147.057 84.9212 146.382 84.8971 145.708 84.9741L145.197 83.6406L141.68 84.9886L142.191 86.3221C141.637 86.7168 141.15 87.1838 140.736 87.7037L139.43 87.1212L137.898 90.5585L139.204 91.141C139.098 91.7957 139.074 92.4649 139.151 93.1436L137.816 93.6539L139.165 97.1682L140.5 96.6579C140.9 97.2116 141.362 97.6978 141.882 98.1118L141.3 99.4164L144.739 100.947L145.322 99.6427C145.977 99.7486 146.647 99.7727 147.326 99.6956L147.837 101.029L151.354 99.6812L150.843 98.3477C151.397 97.9481 151.884 97.486 152.298 96.966L153.604 97.5486L155.136 94.1113L153.83 93.5288C153.936 92.8741 153.96 92.2001 153.883 91.5261L155.218 91.0158ZM147.688 95.3822C146.006 96.0273 144.118 95.1848 143.472 93.5047C142.827 91.8246 143.67 89.9375 145.351 89.2924C147.032 88.6473 148.921 89.4898 149.567 91.1699C150.212 92.85 149.369 94.7371 147.688 95.3822Z" stroke="#A2C7EB" stroke-miterlimit="10"/>
<path d="M153.994 29.4763C153.994 34.7477 151.528 39.4463 147.693 42.4792C144.87 44.7177 141.3 46.0464 137.407 46.0464C133.515 46.0464 129.954 44.7177 127.122 42.4792C123.282 39.4415 120.82 34.7429 120.82 29.4763C120.82 20.3247 128.244 12.9014 137.407 12.9014C146.57 12.9014 153.994 20.3199 153.994 29.4763Z" fill="#0097D8" stroke="#0097D8" stroke-miterlimit="10"/>
<path d="M138.079 29.4001C141.055 29.0329 143.169 26.3244 142.802 23.3506C142.434 20.3767 139.724 18.2637 136.748 18.6309C133.772 18.9982 131.657 21.7067 132.025 24.6805C132.392 27.6543 135.103 29.7674 138.079 29.4001Z" fill="white"/>
<path d="M147.692 40.3906C144.869 42.6291 141.299 43.9578 137.407 43.9578C133.514 43.9578 129.954 42.6291 127.121 40.3906C128.181 35.7257 129.159 31.7011 130.175 30.6805C131.611 29.2459 135.422 28.4131 137.402 28.4131C139.382 28.4131 143.376 29.4289 144.113 30.1654C145.616 31.6626 146.912 35.7979 147.692 40.3906Z" fill="white"/>
<path d="M113.574 70.3294V62.1454C113.574 59.9117 115.386 58.1016 117.621 58.1016H143.424C145.659 58.1016 147.471 59.9117 147.471 62.1454V70.3294C147.471 72.5631 145.659 74.3732 143.424 74.3732H117.626C115.39 74.378 113.574 72.5631 113.574 70.3294Z" fill="#0097D8"/>
<path d="M124.472 69.9014L111.984 82.057L132.223 71.8366" fill="#0097D8"/>
<path d="M116.707 61.9429V61.8996C116.707 61.5674 116.977 61.2979 117.309 61.2979H130.066C130.399 61.2979 130.668 61.5674 130.668 61.8996V61.9429C130.668 62.2751 130.399 62.5447 130.066 62.5447H117.309C116.977 62.5447 116.707 62.2751 116.707 61.9429Z" fill="white"/>
<path d="M131.242 61.9429V61.8996C131.242 61.5674 131.512 61.2979 131.844 61.2979H142.978C143.31 61.2979 143.58 61.5674 143.58 61.8996V61.9429C143.58 62.2751 143.31 62.5447 142.978 62.5447H131.844C131.512 62.5447 131.242 62.2751 131.242 61.9429Z" fill="white"/>
<path d="M126.379 64.6822V64.6389C126.379 64.3067 126.649 64.0371 126.981 64.0371H142.976C143.308 64.0371 143.578 64.3067 143.578 64.6389V64.6822C143.578 65.0144 143.308 65.284 142.976 65.284H126.981C126.649 65.284 126.379 65.0144 126.379 64.6822Z" fill="white"/>
<path d="M116.707 64.6822V64.6389C116.707 64.3067 116.977 64.0371 117.309 64.0371H124.454C124.786 64.0371 125.056 64.3067 125.056 64.6389V64.6822C125.056 65.0144 124.786 65.284 124.454 65.284H117.309C116.977 65.284 116.707 65.0144 116.707 64.6822Z" fill="white"/>
<path d="M128.602 67.4215V67.3781C128.602 67.046 128.871 66.7764 129.204 66.7764H142.977C143.31 66.7764 143.579 67.046 143.579 67.3781V67.4215C143.579 67.7536 143.31 68.0232 142.977 68.0232H129.204C128.871 68.0232 128.602 67.7536 128.602 67.4215Z" fill="white"/>
<path d="M116.707 67.4215V67.3781C116.707 67.046 116.977 66.7764 117.309 66.7764H126.824C127.156 66.7764 127.426 67.046 127.426 67.3781V67.4215C127.426 67.7536 127.156 68.0232 126.824 68.0232H117.309C116.977 68.0232 116.707 67.7536 116.707 67.4215Z" fill="white"/>
<path d="M116.707 70.1607V70.1174C116.707 69.7852 116.977 69.5156 117.309 69.5156H120.841C121.173 69.5156 121.443 69.7852 121.443 70.1174V70.1607C121.443 70.4929 121.173 70.7625 120.841 70.7625H117.309C116.977 70.7625 116.707 70.4929 116.707 70.1607Z" fill="white"/>
<path d="M122.691 70.1607V70.1174C122.691 69.7852 122.961 69.5156 123.294 69.5156H142.978C143.311 69.5156 143.581 69.7852 143.581 70.1174V70.1607C143.581 70.4929 143.311 70.7625 142.978 70.7625H123.294C122.961 70.7625 122.691 70.4929 122.691 70.1607Z" fill="white"/>
<path d="M49.8831 58.7442C53.6003 50.7602 50.1367 41.2767 42.1469 37.5621C34.157 33.8476 24.6666 37.3087 20.9494 45.2927C17.2322 53.2767 20.6958 62.7602 28.6856 66.4748C36.6754 70.1893 46.1658 66.7282 49.8831 58.7442Z" fill="#0097D8"/>
<path d="M32.9323 63.4953C34.9482 62.7879 36.0085 60.5815 35.3006 58.5671C34.5927 56.5527 32.3846 55.4932 30.3688 56.2006C28.3529 56.908 27.2926 59.1144 28.0005 61.1288C28.7085 63.1432 30.9165 64.2027 32.9323 63.4953Z" fill="white"/>
<path d="M29.6254 61.2304L29.4375 58.78L31.4705 57.3936L33.6866 58.4575L33.8745 60.9078L31.8415 62.2943L29.6254 61.2304Z" fill="#0097D8"/>
<path d="M40.4737 47.8355C42.4855 47.1169 43.5335 44.9046 42.8143 42.8942C42.0951 40.8838 39.8812 39.8366 37.8694 40.5552C35.8575 41.2739 34.8096 43.4862 35.5287 45.4966C36.2479 47.507 38.4618 48.5542 40.4737 47.8355Z" fill="white"/>
<path d="M37.2578 45.3491L37.3927 42.2295L39.7437 40.1787L41.9598 41.2426L41.8249 44.3573L39.4739 46.413L37.2578 45.3491Z" fill="#0097D8"/>
<path d="M34.3291 58.0584L31.3711 56.6382L33.5583 51.5979C33.698 51.2801 33.8473 50.9624 34.0111 50.6543L36.5789 45.7969L39.5369 47.217L37.4268 52.1804C37.263 52.5655 37.0848 52.941 36.8872 53.3069L34.3291 58.0536V58.0584Z" fill="white"/>
<path d="M46.4961 60.6003C47.0646 60.3355 56.2228 60.7544 56.2228 60.7544L49.6227 54.6982L46.4961 60.6003Z" fill="#0097D8"/>
<path d="M86.8934 25.0593C90.3316 17.1162 86.6749 7.89199 78.7261 4.45636C70.7772 1.02073 61.5462 4.67474 58.1081 12.6178C54.67 20.5609 58.3266 29.7851 66.2755 33.2208C74.2243 36.6564 83.4553 33.0024 86.8934 25.0593Z" fill="#0097D8"/>
<path d="M73.0298 5.4834H71.9844V18.6451H73.0298V5.4834Z" fill="white"/>
<path d="M60.9324 26.2406L61.5273 27.0996L72.5039 19.5074L71.909 18.6484L60.9324 26.2406Z" fill="white"/>
<path d="M73.9492 18.8378C73.9492 19.6321 73.3036 20.282 72.5039 20.282C71.7042 20.282 71.0586 19.6369 71.0586 18.8378C71.0586 18.0386 71.7042 17.3936 72.5039 17.3936C73.3036 17.3936 73.9492 18.0386 73.9492 18.8378Z" fill="white"/>
<path d="M115.087 124.95C114.157 110.623 120.43 95.7959 130.995 87.3135C131.322 101.712 125.112 116.285 115.087 124.95Z" fill="#A2C7EB"/>
<path d="M129.269 91.1699C124.817 99.4598 120.968 108.135 117.769 117.084C113.881 127.95 110.822 139.494 104.164 148.602" stroke="#6F8BBF" stroke-miterlimit="10" stroke-linecap="round"/>
<path d="M111.75 133.962C117.098 122.008 127.711 112.977 139.413 110.421C134.431 123.231 123.226 133.004 111.75 133.962Z" fill="#A2C7EB"/>
<path d="M136.542 113.055C128.55 120.083 120.422 126.914 112.16 133.543" stroke="#6F8BBF" stroke-miterlimit="10" stroke-linecap="round"/>
<path d="M108.594 144.375C115.738 133.712 128.919 128.147 139.826 131.189C131.805 141.718 118.595 147.297 108.594 144.375Z" fill="#A2C7EB"/>
<path d="M137.212 131.96C127.846 137.814 117.744 142.137 107.328 144.737" stroke="#6F8BBF" stroke-miterlimit="10" stroke-linecap="round"/>
<path d="M112.452 130.337C114.735 118.331 111.31 104.948 103.684 96.0947C100.557 107.894 103.539 121.72 112.452 130.337Z" fill="#A2C7EB"/>
<path d="M104.469 99.1562C105.972 110.325 108.646 120.786 112.789 131.011" stroke="#6F8BBF" stroke-miterlimit="10" stroke-linecap="round"/>
<path d="M108.532 140.562C107.559 128.219 101.228 116.626 91.9688 110.229C92.5035 116.766 94.2427 123.068 97.0032 128.796C100.178 135.377 104.841 139.551 108.532 140.562Z" fill="#A2C7EB"/>
<path d="M93.3398 112.727C96.982 123.019 102.224 132.561 108.761 140.822" stroke="#6F8BBF" stroke-miterlimit="10" stroke-linecap="round"/>
<path d="M180.035 137.602C185.089 124.465 196.714 113.806 209.533 110.562C203.916 123.521 192.45 133.968 180.035 137.602Z" fill="#A2C7EB"/>
<path d="M206.428 113.291C199.095 118.861 192.129 125.018 185.635 131.686C177.744 139.783 170.3 148.814 160.68 154.216" stroke="#6F8BBF" stroke-miterlimit="10" stroke-linecap="round"/>
<path d="M173.395 144.269C183.025 135.801 196.11 132.085 207.498 134.579C197.844 143.961 183.931 148.097 173.395 144.269Z" fill="#A2C7EB"/>
<path d="M203.882 135.758C193.933 138.762 183.946 141.53 173.926 144.067" stroke="#6F8BBF" stroke-miterlimit="10" stroke-linecap="round"/>
<path d="M166.332 152.261C177.022 145.675 190.955 146.094 199.347 153.252C187.939 159.357 173.973 158.938 166.332 152.261Z" fill="#A2C7EB"/>
<path d="M196.722 152.867C186.046 154.264 175.337 153.994 165.07 152.063" stroke="#6F8BBF" stroke-miterlimit="10" stroke-linecap="round"/>
<path d="M175.505 141.328C182.447 131.565 184.909 118.244 181.802 107.249C174.195 116.482 171.16 130.015 175.505 141.328Z" fill="#A2C7EB"/>
<path d="M181.236 110.292C177.98 120.854 176.057 131.262 175.527 142.065" stroke="#6F8BBF" stroke-miterlimit="10" stroke-linecap="round"/>
<path d="M167.844 148.838C172.045 137.448 171.207 124.537 165.647 115.062C163.441 121.104 162.391 127.425 162.482 133.655C162.583 140.808 164.992 146.431 167.844 148.838Z" fill="#A2C7EB"/>
<path d="M165.83 117.845C164.828 128.498 165.545 139.137 167.935 149.16" stroke="#6F8BBF" stroke-miterlimit="10" stroke-linecap="round"/>
<path d="M36.8111 114.634C31.661 98.887 17.2805 86.1633 0.558594 82.5527C7.59229 96.1766 20.3445 107.018 36.8111 114.634Z" fill="#A2C7EB"/>
<path d="M37.6833 117.074C26.4005 110.695 12.2608 109.29 0 113.324C11.3695 119 24.8396 120.579 37.6833 117.074Z" fill="#A2C7EB"/>
<path d="M40.8043 120.492C28.6061 118.803 15.8347 121.807 5.92969 128.696C17.1595 132.778 30.6392 130.13 40.8043 120.492Z" fill="#A2C7EB"/>
<path d="M44.6051 127.95C32.5273 127.901 20.6519 133.635 13.5508 142.95C18.9272 144.029 24.6361 143.384 29.5645 141.15C34.4977 138.916 38.6264 135.108 44.6002 127.95H44.6051Z" fill="#A2C7EB"/>
<path d="M53.1221 140.433C41.2129 138.391 28.5234 142.079 19.9336 150.08C25.0595 152.025 30.7973 152.338 36.0437 150.956C41.29 149.575 46.0113 146.503 53.1221 140.437V140.433Z" fill="#A2C7EB"/>
<path d="M40.2655 115.38C32.4032 104.789 30.269 90.5151 34.7349 78.3691C38.1458 84.1412 41.0893 90.2455 42.4624 96.7349C43.8354 103.224 43.5704 110.142 40.2655 115.38Z" fill="#A2C7EB"/>
<path d="M45.0678 125.601C43.2034 114.345 47.0575 102.421 55.1896 94.2705C56.1242 105.911 52.5592 117.773 45.0678 125.601Z" fill="#A2C7EB"/>
<path d="M4.21484 85.373C28.1487 100.677 46.8699 123.486 56.7508 149.405" stroke="#6F8BBF" stroke-miterlimit="10" stroke-linecap="round"/>
<path d="M35.4766 83.9531C38.3864 95.7669 40.1593 107.826 40.7567 119.924" stroke="#6F8BBF" stroke-miterlimit="10" stroke-linecap="round"/>
<path d="M53.402 98.8379C52.4481 108.37 49.4998 117.685 44.793 126.076" stroke="#6F8BBF" stroke-miterlimit="10" stroke-linecap="round"/>
<path d="M5.03906 113.599C16.0136 115.683 27.1663 116.814 38.3239 116.978" stroke="#6F8BBF" stroke-miterlimit="10" stroke-linecap="round"/>
<path d="M11.6484 127.757C21.7654 127.02 31.7234 124.574 40.925 120.55" stroke="#6F8BBF" stroke-miterlimit="10" stroke-linecap="round"/>
<path d="M17.7148 141.251C27.0514 136.596 36.3879 131.936 45.7244 127.285" stroke="#6F8BBF" stroke-miterlimit="10" stroke-linecap="round"/>
<path d="M23.7852 149.468C35.9737 147.118 39.5965 144.312 53.1244 140.432" stroke="#6F8BBF" stroke-miterlimit="10" stroke-linecap="round"/>
<path d="M100.956 127.155C100.956 127.155 102.011 136.817 103.191 137.592C105.302 138.984 129.727 142.199 129.727 142.199L128.927 148.549C128.927 148.549 95.4736 151.553 94.0525 149.883C91.5858 146.985 87.25 133.004 87.25 133.004L100.956 127.155Z" fill="#E06A58"/>
<path d="M84.8281 102.28L87.5308 95.7959C87.5308 95.7959 94.8632 99.238 97.2816 103.489C99.8687 108.033 103.034 132.195 103.034 132.195C103.034 132.195 90.0889 135.175 87.709 133.909C85.3292 132.643 84.8281 102.28 84.8281 102.28Z" fill="#F2AE30"/>
<path d="M64.243 72.1826C62.3497 71.4894 60.3456 70.8828 58.3174 71.0368C56.2891 71.1909 54.2176 72.2644 53.5287 74.0457C53.0373 75.307 53.2637 76.7945 52.4881 77.9306C51.7461 79.0186 50.272 79.4711 48.8941 79.5626C47.5115 79.6589 46.1192 79.476 44.7462 79.6541C40.5067 80.2173 37.4812 84.8196 38.8735 88.589C39.4275 90.091 40.5645 91.5256 40.3043 93.0902C40.0297 94.7655 38.2713 95.868 37.5487 97.4229C36.59 99.493 37.7366 102.001 39.6299 103.412C41.5232 104.817 43.985 105.352 46.3745 105.708C49.6649 106.199 53.0614 106.43 56.3132 105.737C59.5651 105.044 62.6725 103.33 64.3538 100.653C65.1005 99.4689 65.5534 98.1306 66.4206 97.0185C68.2127 94.7222 71.3875 93.8316 73.8878 92.2044C76.6194 90.4184 78.6236 86.9426 77.0145 84.2227C75.4632 81.6086 71.4261 81.0261 69.8073 78.4506C69.1377 77.3866 68.9787 76.1205 68.5451 74.9603C68.1019 73.7953 67.042 73.208 64.243 72.1826Z" fill="#0A2240"/>
<path d="M75.2762 104.25C75.7532 104.799 76.3168 105.4 77.0973 105.453C77.9211 105.511 78.61 104.929 79.14 104.365C81.8764 101.472 83.683 97.9192 84.4152 94.2557C83.736 93.8706 83.0808 93.4999 82.4882 93.1533C81.939 92.8259 81.5247 92.3686 81.2886 91.8342C81.1248 91.4395 81.067 91.0254 81.1104 90.5922C81.4958 86.972 81.8378 84.9549 83.1097 81.2817C77.0684 79.9193 71.3692 78.3018 68.0932 75.5674C67.6933 77.2523 67.2212 80.55 66.2143 83.8187C65.14 87.2801 63.4635 90.7029 60.6211 92.176C66.1999 95.4689 71.1765 99.5608 75.2762 104.25Z" fill="#F9A07B"/>
<path d="M81.1109 90.5971C81.0675 91.0303 81.1253 91.4492 81.2891 91.8391C77.7145 96.1718 69.7221 90.5104 66.2148 83.8236C67.2217 80.5549 67.6938 77.2572 68.0937 75.5723C71.3649 78.3067 77.0689 79.929 83.1102 81.2866C81.8383 84.9598 81.4963 86.972 81.1109 90.5971Z" fill="#E06A58"/>
<path d="M91.064 142.975C90.2739 148.203 95.9201 153.83 96.0598 156.623C84.0688 156.623 58.9498 157.354 46.1591 155.616C45.5762 152.391 51.892 145.136 51.892 137.973C51.892 137.024 51.8535 135.985 51.7764 134.868C51.5741 131.671 51.102 127.868 50.5768 123.969C49.1508 113.508 47.2527 102.32 48.6546 99.9992C51.4007 95.4787 57.8225 92.4073 61.007 91.0883C62.1005 90.6357 62.8136 90.3902 62.8666 90.3613C66.8603 97.1685 74.9876 102.974 78.0565 102.714C78.9092 102.647 81.4384 101.766 83.1101 93.3557C83.7605 93.7264 84.4109 94.0682 85.0564 94.4004C88.2312 96.0516 91.2085 97.414 92.066 99.537C94.3303 105.126 96.5512 119.217 96.0598 124.228C95.5636 129.283 93.5306 133.144 92.1046 138.218C91.7722 139.407 91.4687 140.669 91.223 142.026C91.1603 142.33 91.1122 142.647 91.064 142.975Z" fill="#FFC73C"/>
<path d="M96.0598 156.623C84.0688 156.623 58.9498 157.354 46.1591 155.616C45.5762 152.391 51.892 145.136 51.892 137.973C51.892 137.024 51.8535 135.985 51.7764 134.868C51.5741 131.671 51.102 127.868 50.5768 123.969C52.8459 126.361 56.1556 116.252 57.6202 119.212C65.5451 135.195 71.7936 139.398 82.6524 139.398C85.8899 139.398 88.8768 138.95 92.1046 138.218C91.7722 139.407 91.4687 140.669 91.223 142.026C91.1652 142.334 91.1122 142.652 91.064 142.979C90.2739 148.198 95.9201 153.826 96.0598 156.623Z" fill="#FFBB33"/>
<path d="M85.0573 94.4004C84.5418 98.1409 83.0146 103.181 78.5728 104.51C72.5701 106.306 63.8839 95.0984 61.0078 91.0883C62.1014 90.6357 62.8144 90.3902 62.8674 90.3613C66.8612 97.1685 74.9885 102.974 78.0573 102.714C78.91 102.647 81.4393 101.766 83.111 93.3557C83.7614 93.7216 84.4117 94.0634 85.0573 94.4004Z" fill="#FCE172"/>
<path d="M87.5199 150.994L87.4766 155.168L162.149 155.611L162.304 150.879L87.5199 150.994Z" fill="#325F73"/>
<path d="M194.516 113.757L192.853 112.072L138.463 111.716L111.176 151.148L112.602 152.294L194.516 113.757Z" fill="#325F73"/>
<path d="M139.513 113.175L112.602 152.294L164.005 152.549L194.515 113.757L139.513 113.175Z" fill="#0B2D50"/>
<path d="M152.499 138.145C155.804 138.145 158.483 136.807 158.483 135.156C158.483 133.504 155.804 132.166 152.499 132.166C149.195 132.166 146.516 133.504 146.516 135.156C146.516 136.807 149.195 138.145 152.499 138.145Z" fill="#3C738C"/>
<path d="M88.6244 74.5613C89.4723 70.0168 92.5893 66.7817 95.5907 67.3449C98.5921 67.9034 100.336 72.0435 99.4881 76.588C98.6402 81.1325 95.5232 84.3676 92.5219 83.8043C89.5205 83.2459 87.7765 79.1058 88.6244 74.5613Z" fill="#56C4F9"/>
<path d="M99.4986 62.3137C98.9397 66.2709 97.1717 70.6325 94.5942 75.4514C93.6885 71.5039 93.1104 66.6946 92.3107 61.8853C91.4965 57.0664 90.4607 52.2475 88.6638 48.3095C88.2591 47.4382 87.8207 46.6053 87.3438 45.8351C88.4084 45.734 89.4876 45.8351 90.5137 46.1191C92.118 46.5476 93.6211 47.3756 94.8496 48.4828C96.8922 50.2978 98.2604 52.7722 99.0746 55.3814C99.7443 57.5478 99.8647 59.8489 99.4986 62.3137Z" fill="#0B2D50"/>
<path d="M96.476 66.406C96.447 67.1859 96.3941 67.9802 96.3218 68.7697C95.2234 81.5752 89.8421 90.361 81.6088 90.361C69.984 90.361 62.4492 77.334 62.4492 64.5719C62.4492 51.8097 70.167 42.8699 79.2 43.9242C84.4079 44.5211 88.2138 46.2494 90.9164 48.7816C92.7038 50.4665 93.9949 52.5029 94.8765 54.8185C95.8834 57.4133 96.37 60.3499 96.4711 63.5127C96.4711 63.5224 96.4808 63.532 96.4808 63.5416C96.5193 64.4756 96.5097 65.4288 96.4808 66.406H96.476Z" fill="#F9A07B"/>
<path d="M96.4767 66.4057C96.1299 65.1685 95.6144 63.9601 94.911 62.877C88.0555 66.4587 79.8849 67.8403 72.1382 66.5309C70.664 67.7585 69.2235 68.9668 67.7734 70.1751C67.8023 64.3501 67.8842 60.4073 70.1581 57.5863C72.2923 54.9385 75.8526 53.942 79.2249 53.5087C83.0212 53.0129 86.8801 53.0321 90.6667 53.5809C92.1168 53.7831 93.6199 54.0961 94.8821 54.8278C95.889 57.4226 96.3756 60.3592 96.4767 63.5221C96.4767 63.5317 96.4864 63.5413 96.4864 63.5509C96.5201 64.4752 96.5104 65.4284 96.4767 66.4057Z" fill="#E06A58"/>
<path d="M98.1494 58.5205C96.5548 59.8685 94.5555 60.9854 92.3105 61.8904C85.9223 64.466 77.6216 65.318 71.1515 65.0051C67.9719 71.9856 66.6856 74.4889 65.8714 80.5787C62.7641 77.6662 60.2349 72.3322 59.4833 68.1391C58.7414 63.9605 58.8137 59.5748 59.9795 55.4684C61.815 48.9934 66.4447 45.5273 69.6533 43.8424C70.453 43.4043 71.1756 43.101 71.7345 42.8795C75.8342 41.2957 80.4543 41.4401 84.6601 42.7255C86.9533 43.438 88.8851 44.6415 90.5087 46.1242C93.7895 49.0849 95.8177 53.0951 97.1281 56.0991C97.5424 57.0185 97.8748 57.8514 98.1494 58.5205Z" fill="#0B2D50"/>
<path d="M99.4995 62.314C99.2345 60.9131 98.8395 59.5555 98.2806 58.2461C97.9675 57.5047 97.5821 56.7874 97.134 56.0942C95.6743 53.8027 93.5497 51.9155 90.982 51.0827C90.2497 50.0573 89.4789 49.133 88.6695 48.3146C85.7549 45.3539 82.3344 43.6594 78.7115 43.0672C75.6957 42.581 72.5594 42.8554 69.6641 43.8375C70.4638 43.3994 71.1864 43.0961 71.7453 42.8747C75.845 41.2908 80.4651 41.4352 84.6709 42.7206C86.9641 43.4331 88.8959 44.6366 90.5195 46.1194C92.1237 46.5478 93.6268 47.3758 94.8553 48.4831C96.898 50.298 98.2662 52.7724 99.0803 55.3817C99.7452 57.548 99.8656 59.8492 99.4995 62.314Z" fill="#225570"/>
<path d="M74.8594 70.1662C77.008 68.9386 79.2386 68.385 82.3652 69.5259" stroke="#0B2D50" stroke-width="2" stroke-miterlimit="10" stroke-linecap="round"/>
<path d="M89.5742 70.0791C91.4145 68.7071 94.1413 68.5674 95.5625 70.0791" stroke="#0B2D50" stroke-width="2" stroke-miterlimit="10" stroke-linecap="round"/>
<path d="M87.3523 77.0791C87.5402 78.0515 87.4391 80.2035 86.9766 81.1711" stroke="#CC454E" stroke-width="2" stroke-miterlimit="10" stroke-linecap="round"/>
<path d="M80.0896 77.7336C80.5791 77.7336 80.976 77.1085 80.976 76.3375C80.976 75.5665 80.5791 74.9414 80.0896 74.9414C79.6 74.9414 79.2031 75.5665 79.2031 76.3375C79.2031 77.1085 79.6 77.7336 80.0896 77.7336Z" fill="#262D40"/>
<path d="M91.6794 77.0842C92.169 77.0842 92.5659 76.4591 92.5659 75.6881C92.5659 74.917 92.169 74.292 91.6794 74.292C91.1898 74.292 90.793 74.917 90.793 75.6881C90.793 76.4591 91.1898 77.0842 91.6794 77.0842Z" fill="#262D40"/>
<path d="M86.2539 83.0725C86.2539 83.0725 86.0805 83.4095 85.7481 83.8669C85.2278 84.5649 84.3414 85.5277 83.1321 85.9032C82.6215 86.0669 82.0675 86.1247 81.4508 86.014C79.6394 85.6914 79.1624 84.0209 79.0757 82.7356C79.0565 82.4852 79.0565 82.2541 79.0613 82.0423C79.0709 81.5224 79.1287 81.1758 79.1287 81.1758C82.0145 82.7644 86.2588 83.0725 86.2588 83.0725H86.2539Z" fill="#CC454E"/>
<path d="M86.2522 83.0725C86.2522 83.0725 86.0788 83.4095 85.7463 83.8669C84.2722 83.8476 81.2563 83.0918 79.0547 82.0423C79.0643 81.5224 79.1221 81.1758 79.1221 81.1758C82.0079 82.7644 86.2522 83.0725 86.2522 83.0725Z" fill="white"/>
<path d="M83.1267 85.8981C82.6161 86.0618 82.062 86.1196 81.4454 86.0089C79.634 85.6863 79.157 84.0158 79.0703 82.7305C79.9471 82.8364 80.795 83.1734 81.4984 83.7077C82.2355 84.271 82.7991 85.0364 83.1267 85.8981Z" fill="#E8729B"/>
<path d="M65.9 67.9558C65.9 67.9558 65.7988 61.9526 68.2991 55.9879C71.4354 48.502 77.8283 45.3007 84.0286 45.084C91.5007 44.8192 96.1786 49.8307 96.1786 49.8307C96.1786 49.8307 93.7457 45.5414 88.9474 44.3089C85.7967 43.5002 81.0417 43.3702 77.2261 44.9203C73.295 46.5138 68.3955 50.938 66.6226 55.6124C64.8545 60.2869 63.9922 67.5659 63.9922 67.5659L65.9 67.9558Z" fill="#3D86E0"/>
<path d="M65.784 83.5844C68.9835 83.2518 71.1683 79.0547 70.6638 74.21C70.1594 69.3653 67.1568 65.7076 63.9573 66.0403C60.7578 66.3729 58.573 70.57 59.0774 75.4147C59.5819 80.2593 62.5845 83.9171 65.784 83.5844Z" fill="#56C4F9"/>
<path d="M62.3281 68.8795C64.3949 68.5714 66.5098 71.2625 67.059 74.8923C67.6034 78.5221 66.3749 81.7187 64.3082 82.0268C62.2414 82.3349 60.1265 79.6438 59.5821 76.014C59.0377 72.3842 60.2662 69.1876 62.333 68.8795H62.3281Z" fill="#3D86E0"/>
<path d="M84.0752 90.5386C85.7887 90.5386 87.1777 89.6743 87.1777 88.6082C87.1777 87.542 85.7887 86.6777 84.0752 86.6777C82.3617 86.6777 80.9727 87.542 80.9727 88.6082C80.9727 89.6743 82.3617 90.5386 84.0752 90.5386Z" fill="#3A92C9"/>
<path d="M68.4922 82.1523C68.4922 82.1523 73.0496 88.0063 80.9746 88.608" stroke="#3A92C9" stroke-width="2" stroke-miterlimit="10" stroke-linecap="round"/>
<path d="M87.4793 139.85L87.1806 147.548C87.1806 147.548 59.3204 155.891 54.7196 153.252C52.4746 151.962 50.3789 144.866 48.8132 137.939C47.1752 130.66 46.125 123.574 46.125 123.574L62.4567 120.377C62.4567 120.377 62.4663 130.328 63.0203 136.081C63.2179 138.223 63.5021 139.783 63.8827 140.038C65.3232 140.986 87.4793 139.85 87.4793 139.85Z" fill="#F9A07B"/>
<path d="M63.0203 136.071C60.0527 137.034 54.3246 138.521 48.8132 137.934C47.1752 130.655 46.125 123.569 46.125 123.569L62.4567 120.372C62.4567 120.372 62.4663 130.318 63.0203 136.071Z" fill="#E06A58"/>
<path d="M86.6838 139.927C90.827 139.041 97.8414 136.913 100.751 136.181C102.818 135.661 108.199 138.444 109.62 141.068C110.242 142.213 110.83 148.703 108.676 148.034C107.597 147.697 107.775 144.914 107.438 143.778C107.163 142.854 106.287 141.958 104.952 141.188C105.843 143.407 105.81 145.343 105.713 147.74C105.694 148.27 105.66 148.823 105.405 149.281C105.145 149.738 104.586 150.065 104.104 149.863C103.613 149.661 103.444 149.049 103.333 148.515C102.953 146.666 102.567 144.818 102.413 142.729C102.452 144.784 102.413 146.845 102.278 148.895C102.182 150.465 101.402 151.326 100.443 151.052C100.014 150.932 99.8407 150.537 99.6576 150.017C99.3686 151.023 98.6459 152.135 97.7113 151.712C97.1428 151.456 96.7912 149.406 96.8923 147.297C95.1002 148.409 93.0768 148.881 90.7451 148.987C88.6542 149.083 86.5152 148.693 85.2578 147.273C85.3831 145.054 86.1153 141.771 86.6838 139.927Z" fill="#F9A07B"/>
<path d="M99.7022 149.7C99.8419 148.034 99.7022 146.344 99.2734 144.736" stroke="#CC454E" stroke-miterlimit="10" stroke-linecap="round"/>
<path d="M60.6198 104.23C59.4346 100.894 55.094 94.0674 55.094 94.0674C55.094 94.0674 48.4698 96.8211 46.1188 101.496C42.1394 109.41 44.1628 132.132 44.1628 132.132C49.5248 134.376 60.2873 134.41 64.8689 133.764C64.8689 133.764 62.9948 110.897 60.6198 104.23Z" fill="#FFC73C"/>
<path d="M61.4609 105.626C63.2675 114.267 64.2359 122.326 64.5442 130.221" stroke="#F2AE30" stroke-miterlimit="10" stroke-linecap="round"/>
<path d="M203.245 154.239H13.2969V159H203.245V154.239Z" fill="#0B2D50"/>
</g>
<defs>
<clipPath id="clip0_799_88350">
<rect width="215" height="159" fill="white"/>
</clipPath>
</defs>
</svg>
