<svg width="37" height="48" viewBox="0 0 37 48" fill="none" xmlns="http://www.w3.org/2000/svg">
<path d="M21.7431 30.4278L17.0679 19.6038C16.9599 19.3574 16.8999 19.0854 16.8999 18.7998C16.8999 17.695 17.7951 16.7998 18.8999 16.7998C19.6487 16.7998 20.2999 17.211 20.6439 17.819L26.7175 28.5926" stroke="#BCBCC0" stroke-width="2" stroke-miterlimit="10"/>
<path d="M24.916 25.3975L27.136 25.6095C28.572 25.7295 29.7 26.9327 29.7 28.3999C29.7 30.3327 29.1816 35.1999 26.1 35.1999C23.9504 35.1999 23.1688 33.7111 22.736 32.7247L21.3992 29.6311" stroke="#BCBCC0" stroke-width="2" stroke-miterlimit="10"/>
<path d="M20.4183 27.3609C19.9415 27.7249 19.3127 28.0001 18.4999 28.0001C16.0999 28.0001 15.2999 25.6001 15.2999 25.6001" stroke="#BCBCC0" stroke-width="2" stroke-miterlimit="10"/>
<path d="M26.5 35.1689V48.0001" stroke="#BCBCC0" stroke-width="2" stroke-miterlimit="10"/>
<path d="M5.69995 47.9999V34.4287C5.69995 30.6503 8.27195 27.3567 11.9376 26.4407L15.3 25.5999V21.5439" stroke="#BCBCC0" stroke-width="2" stroke-miterlimit="10"/>
<path d="M10.5 33.6001V48.0001" stroke="#BCBCC0" stroke-width="2" stroke-miterlimit="10"/>
<path d="M18.2736 22.3959C14.844 22.2775 12.1 19.4591 12.1 15.9999V11.3999" stroke="#BCBCC0" stroke-width="2" stroke-miterlimit="10"/>
<path d="M14.5 11.9999C11.4976 11.9999 9.69995 9.7111 9.69995 6.6503C9.69995 4.4935 11.3 2.3999 11.3 2.3999C12.4208 4.2279 14.5 5.5999 18.5 5.5999C22.5 5.5999 24.9 7.9999 24.9 11.9999V15.9999C24.9 18.0423 23.944 19.8599 22.4544 21.0319" stroke="#BCBCC0" stroke-width="2" stroke-miterlimit="10"/>
<path d="M3.29995 15.2H7.29995C7.29995 15.2 5.69995 12 3.29995 12C2.41675 12 1.69995 12.7168 1.69995 13.6C1.69995 14.4832 2.41675 15.2 3.29995 15.2Z" stroke="#BCBCC0" stroke-width="2" stroke-miterlimit="10"/>
<path d="M6.32955 23.9168L8.09995 20C8.09995 20 4.54715 20.3368 3.47035 22.4824C3.07355 23.272 3.39275 24.2336 4.18315 24.6304C4.97195 25.0256 5.93435 24.7072 6.32955 23.9168Z" stroke="#BCBCC0" stroke-width="2" stroke-miterlimit="10"/>
<path d="M31.6439 21.144L34.1439 23.644" stroke="#BCBCC0" stroke-width="2" stroke-miterlimit="10"/>
<path d="M31.6376 9.26224L34.164 6.73584" stroke="#BCBCC0" stroke-width="2" stroke-miterlimit="10"/>
<path d="M36.1 15.1997H32.1" stroke="#BCBCC0" stroke-width="2" stroke-miterlimit="10"/>
</svg>
