<?xml version="1.0" standalone="no"?>
<!DOCTYPE svg PUBLIC "-//W3C//DTD SVG 20010904//EN"
 "http://www.w3.org/TR/2001/REC-SVG-20010904/DTD/svg10.dtd">
<svg version="1.0" xmlns="http://www.w3.org/2000/svg"
 width="512.000000pt" height="512.000000pt" viewBox="0 0 512.000000 512.000000"
 preserveAspectRatio="xMidYMid meet">

<g transform="translate(0.000000,512.000000) scale(0.100000,-0.100000)"
fill="#000000" stroke="none">
<path d="M2518 4774 c-34 -18 -48 -43 -48 -87 0 -72 74 -116 138 -83 37 19 52
44 52 86 0 42 -15 67 -50 85 -36 19 -57 18 -92 -1z"/>
<path d="M1983 4708 c-42 -11 -63 -42 -63 -94 0 -85 100 -125 161 -65 38 38
39 87 4 129 -28 34 -56 42 -102 30z"/>
<path d="M3093 4712 c-12 -2 -33 -15 -47 -29 -58 -58 -14 -163 69 -163 82 0
127 105 70 163 -26 26 -54 35 -92 29z"/>
<path d="M1453 4488 c-33 -16 -57 -74 -46 -111 18 -66 109 -93 158 -47 83 78
-9 208 -112 158z"/>
<path d="M3581 4486 c-53 -30 -66 -97 -26 -144 47 -56 133 -44 161 23 18 45
10 78 -28 110 -33 28 -70 31 -107 11z"/>
<path d="M995 4136 c-32 -32 -40 -69 -25 -107 17 -39 46 -59 90 -59 44 0 73
20 90 59 26 64 -20 131 -90 131 -30 0 -47 -6 -65 -24z"/>
<path d="M4005 4136 c-32 -32 -40 -69 -25 -107 16 -39 46 -59 88 -59 44 0 68
14 88 52 34 66 -11 138 -88 138 -28 0 -46 -7 -63 -24z"/>
<path d="M1305 3911 c-96 -44 -139 -152 -100 -249 11 -26 180 -201 548 -569
l532 -533 -532 -532 c-368 -369 -537 -544 -548 -570 -64 -157 96 -317 253
-253 26 11 201 180 570 548 l532 532 533 -532 c368 -368 543 -537 569 -548
157 -64 317 96 253 253 -11 26 -180 201 -548 570 l-532 532 532 533 c368 368
537 543 548 569 64 157 -96 317 -253 253 -26 -11 -201 -180 -569 -548 l-533
-532 -532 532 c-369 368 -544 537 -570 548 -49 20 -104 19 -153 -4z"/>
<path d="M655 3696 c-32 -32 -40 -69 -25 -107 17 -39 46 -59 90 -59 44 0 73
20 90 59 26 64 -20 131 -90 131 -30 0 -47 -6 -65 -24z"/>
<path d="M4343 3696 c-23 -20 -28 -32 -28 -71 0 -39 5 -51 28 -71 30 -26 83
-32 119 -13 11 6 26 26 34 46 18 42 5 94 -29 118 -33 23 -91 19 -124 -9z"/>
<path d="M444 3176 c-44 -44 -45 -83 -5 -128 24 -27 36 -33 70 -33 91 0 131
105 63 166 -45 40 -84 39 -128 -5z"/>
<path d="M4554 3176 c-44 -44 -45 -83 -5 -128 24 -27 36 -33 70 -33 91 0 131
105 63 166 -45 40 -84 39 -128 -5z"/>
<path d="M391 2647 c-96 -55 -40 -206 67 -182 57 12 91 75 68 128 -7 18 -20
38 -29 45 -23 20 -79 24 -106 9z"/>
<path d="M4655 2651 c-61 -25 -80 -108 -36 -155 79 -84 207 4 159 109 -20 44
-76 65 -123 46z"/>
<path d="M474 2101 c-32 -14 -64 -60 -64 -93 0 -21 11 -41 34 -64 44 -44 83
-45 128 -5 27 24 33 36 33 70 0 67 -71 117 -131 92z"/>
<path d="M4584 2101 c-32 -14 -64 -60 -64 -93 0 -21 11 -41 34 -64 44 -44 83
-45 128 -5 27 24 33 36 33 70 0 67 -71 117 -131 92z"/>
<path d="M655 1566 c-32 -32 -40 -69 -25 -107 17 -39 46 -59 90 -59 44 0 73
20 90 59 26 64 -20 131 -90 131 -30 0 -47 -6 -65 -24z"/>
<path d="M4343 1566 c-23 -20 -28 -32 -28 -71 0 -39 5 -51 28 -71 30 -26 83
-32 119 -13 11 6 26 26 34 46 18 42 5 94 -29 118 -33 23 -91 19 -124 -9z"/>
<path d="M995 1127 c-18 -15 -28 -36 -32 -64 -5 -37 -2 -45 25 -73 52 -52 131
-39 158 27 40 94 -74 177 -151 110z"/>
<path d="M3998 1120 c-27 -28 -30 -36 -25 -73 7 -53 44 -87 93 -87 74 0 119
66 90 133 -27 66 -106 79 -158 27z"/>
<path d="M1470 809 c-60 -24 -82 -75 -55 -132 48 -103 205 -50 180 61 -12 55
-74 90 -125 71z"/>
<path d="M3603 813 c-30 -6 -73 -59 -73 -89 0 -59 45 -104 105 -104 30 0 81
43 89 75 10 40 -18 94 -58 110 -20 8 -37 14 -38 14 -2 -1 -13 -4 -25 -6z"/>
<path d="M1951 574 c-26 -22 -31 -33 -31 -70 0 -34 6 -51 25 -69 39 -40 98
-37 138 6 38 41 37 90 -2 130 -39 38 -87 39 -130 3z"/>
<path d="M3049 571 c-39 -39 -41 -97 -3 -134 29 -29 56 -36 99 -25 102 27 76
188 -30 188 -27 0 -44 -8 -66 -29z"/>
<path d="M2524 520 c-56 -22 -73 -112 -30 -155 32 -32 69 -40 107 -25 39 16
59 46 59 88 0 44 -14 68 -50 87 -32 17 -54 18 -86 5z"/>
</g>
</svg>
