<?xml version="1.0" standalone="no"?>
<!DOCTYPE svg PUBLIC "-//W3C//DTD SVG 20010904//EN"
 "http://www.w3.org/TR/2001/REC-SVG-20010904/DTD/svg10.dtd">
<svg version="1.0" xmlns="http://www.w3.org/2000/svg"
 width="512.000000pt" height="512.000000pt" viewBox="0 0 512.000000 512.000000"
 preserveAspectRatio="xMidYMid meet">

<g transform="translate(0.000000,512.000000) scale(0.100000,-0.100000)"
fill="#000000" stroke="none">
<path d="M2375 4899 c-782 -64 -1478 -510 -1864 -1196 -324 -576 -385 -1281
-167 -1912 116 -333 289 -611 540 -869 705 -723 1792 -913 2701 -472 491 239
898 659 1115 1150 358 809 242 1724 -306 2422 -129 164 -385 396 -564 510
-199 127 -446 236 -665 293 -166 44 -277 62 -445 75 -150 11 -199 11 -345 -1z
m490 -443 c202 -36 347 -83 524 -167 740 -354 1173 -1138 1076 -1949 -79 -665
-485 -1230 -1090 -1516 -522 -246 -1120 -244 -1644 7 -399 191 -709 502 -900
900 -85 177 -129 318 -168 529 -24 133 -24 467 0 600 39 211 83 352 168 529
286 598 847 997 1519 1080 107 14 408 6 515 -13z"/>
<path d="M3560 3295 c-37 -12 -142 -103 -623 -545 -319 -291 -582 -530 -585
-530 -3 0 -128 121 -277 269 -267 266 -271 269 -325 280 -160 33 -292 -109
-250 -267 12 -43 44 -78 364 -401 233 -234 364 -360 391 -372 53 -24 135 -25
183 0 60 31 1357 1225 1378 1269 31 65 30 129 -3 192 -49 94 -153 137 -253
105z"/>
</g>
</svg>
