<?xml version="1.0" standalone="no"?>
<!DOCTYPE svg PUBLIC "-//W3C//DTD SVG 20010904//EN"
 "http://www.w3.org/TR/2001/REC-SVG-20010904/DTD/svg10.dtd">
<svg version="1.0" xmlns="http://www.w3.org/2000/svg"
 width="512.000000pt" height="512.000000pt" viewBox="0 0 512.000000 512.000000"
 preserveAspectRatio="xMidYMid meet">

<g transform="translate(0.000000,512.000000) scale(0.100000,-0.100000)"
fill="#000000" stroke="none">
<path d="M825 4935 l-25 -24 0 -376 0 -375 -295 0 -296 0 -24 -25 -25 -24 0
-1469 c0 -1432 0 -1470 19 -1493 19 -24 22 -24 256 -29 l238 -5 133 -465 c114
-395 138 -468 160 -487 14 -13 32 -23 41 -23 33 0 3889 1112 3905 1127 9 8 19
25 22 38 4 17 -101 412 -160 597 -5 16 1 18 66 18 62 0 74 3 95 25 l25 24 0
1471 0 1471 -25 24 -24 25 -2031 0 -2031 0 -24 -25z m3975 -1495 l0 -1360 -38
0 -38 0 -42 148 -42 148 0 1108 0 1107 -25 24 -24 25 -1711 0 -1711 0 -24 -25
c-25 -24 -25 -24 -25 -240 l0 -215 -80 0 -80 0 0 320 0 320 1920 0 1920 0 0
-1360z m-320 273 c0 -421 -2 -764 -4 -762 -2 2 -38 124 -80 270 l-76 266 0
312 0 312 -25 24 -24 25 -1496 0 -1495 0 0 160 0 160 1600 0 1600 0 0 -767z
m-471 283 c-2 -2 -124 -38 -271 -80 l-268 -76 -1470 0 -1471 0 -24 -25 -25
-24 0 -405 0 -405 -69 -21 c-37 -11 -73 -20 -80 -20 -8 0 -11 139 -11 530 l0
530 1847 0 c1015 0 1844 -2 1842 -4z m98 -342 c28 -98 52 -192 52 -207 1 -16
8 -41 16 -55 20 -36 305 -1033 305 -1067 0 -15 7 -39 15 -53 28 -49 264 -886
251 -893 -14 -8 -3647 -1052 -3665 -1053 -10 -1 -110 332 -366 1224 -308 1071
-351 1226 -336 1233 9 4 354 104 766 222 413 119 1103 317 1533 440 431 124
800 229 820 235 21 5 150 42 287 83 138 41 254 74 260 73 5 -2 33 -83 62 -182z
m-1212 21 c-24 -10 -1444 -415 -1452 -415 -6 0 -15 17 -21 38 -53 178 -262
269 -435 189 -74 -34 -109 -67 -148 -139 -31 -58 -33 -70 -33 -148 1 -47 3
-93 5 -104 3 -15 -9 -22 -76 -42 -44 -13 -83 -24 -87 -24 -5 0 -8 146 -8 325
l0 325 1133 -1 c622 0 1128 -2 1122 -4z m-1708 -331 c39 -19 78 -66 88 -106 7
-26 4 -27 -62 -47 -37 -11 -100 -29 -139 -40 -96 -28 -102 -28 -110 14 -24
132 104 235 223 179z m-567 -2051 c0 -10 -37 -13 -150 -13 l-150 0 1 528 0
527 149 -515 c82 -283 150 -521 150 -527z"/>
<path d="M2260 3160 c-876 -252 -1604 -461 -1617 -465 -31 -7 -63 -44 -63 -73
0 -13 131 -479 290 -1035 225 -784 295 -1016 311 -1029 12 -10 33 -18 48 -18
15 0 279 72 587 161 307 88 1029 295 1604 460 575 165 1053 302 1063 305 28 9
57 45 57 72 0 13 -131 479 -290 1035 -225 784 -295 1016 -311 1030 -12 9 -35
17 -53 16 -17 0 -749 -207 -1626 -459z m1757 -357 c101 -350 182 -637 180
-639 -1 -1 -177 98 -391 219 -251 142 -400 220 -418 220 -15 0 -37 -8 -48 -18
-11 -10 -77 -117 -147 -237 -80 -138 -132 -217 -140 -214 -7 3 -234 134 -505
291 -515 298 -536 308 -575 267 -10 -10 -198 -352 -418 -760 -288 -533 -402
-736 -407 -724 -23 52 -387 1346 -381 1352 4 4 539 159 1188 345 649 186 1331
382 1515 436 184 53 342 97 350 98 11 1 59 -151 197 -636z m-1494 -549 c243
-141 446 -259 450 -263 7 -7 -510 -911 -536 -938 -10 -10 -1119 -333 -1143
-333 -11 0 -77 232 -72 252 1 8 190 359 418 781 282 522 419 765 428 762 7 -3
212 -120 455 -261z m1326 -79 l416 -235 48 -167 c27 -91 45 -169 40 -173 -8
-7 -1686 -491 -1689 -487 -5 5 751 1297 759 1297 5 0 197 -106 426 -235z"/>
<path d="M2839 3076 c-150 -58 -237 -205 -209 -355 20 -111 83 -191 184 -237
171 -78 372 10 431 187 23 69 17 177 -14 239 -31 61 -86 116 -146 148 -61 31
-187 40 -246 18z m198 -174 c63 -45 83 -149 40 -213 -32 -49 -105 -83 -158
-74 -57 10 -117 66 -129 120 -17 73 20 152 84 181 43 20 126 13 163 -14z"/>
</g>
</svg>
