<?xml version="1.0" standalone="no"?>
<!DOCTYPE svg PUBLIC "-//W3C//DTD SVG 20010904//EN"
 "http://www.w3.org/TR/2001/REC-SVG-20010904/DTD/svg10.dtd">
<svg version="1.0" xmlns="http://www.w3.org/2000/svg"
 width="512.000000pt" height="512.000000pt" viewBox="0 0 512.000000 512.000000"
 preserveAspectRatio="xMidYMid meet">

<g transform="translate(0.000000,512.000000) scale(0.100000,-0.100000)"
fill="#000000" stroke="none">
<path d="M4615 4958 c-242 -61 -442 -113 -445 -115 -2 -2 59 -67 135 -143
l140 -140 -341 -341 -340 -340 -65 21 c-109 37 -238 9 -316 -70 l-32 -32 -133
104 c-72 57 -136 106 -141 109 -5 4 0 32 13 65 114 305 -123 644 -450 644 -50
0 -62 4 -111 41 -365 272 -862 350 -1306 204 -124 -41 -291 -129 -404 -214
-495 -372 -698 -1009 -508 -1594 145 -450 514 -806 970 -938 l79 -23 0 -96 0
-97 -72 -7 c-141 -13 -269 -74 -389 -184 l-69 -64 -40 35 c-63 54 -87 57 -414
57 l-296 0 0 -720 0 -720 296 0 c199 0 310 4 336 12 48 14 121 76 138 118 l12
30 249 0 249 0 0 -136 c0 -170 9 -204 75 -269 63 -64 100 -75 245 -75 145 0
182 11 245 75 66 65 75 99 75 269 l0 136 80 0 80 0 0 -136 c0 -78 5 -154 12
-178 16 -55 99 -138 154 -154 60 -17 2488 -17 2548 0 55 16 138 99 154 154 17
59 17 1689 0 1746 -6 22 -31 62 -55 88 -69 77 -86 80 -433 80 l-297 0 -5 89
c-10 162 -86 279 -226 349 l-76 37 -336 0 -336 0 -76 -37 c-140 -70 -216 -187
-226 -349 l-5 -89 -295 0 c-197 0 -308 -4 -334 -12 -48 -14 -121 -76 -138
-118 l-12 -30 -89 0 -89 0 0 99 0 98 68 18 c449 120 835 491 981 942 52 160
65 250 66 445 l0 176 21 -16 c12 -10 49 -37 82 -62 l59 -45 6 -72 c4 -55 13
-86 38 -133 36 -68 68 -99 143 -138 43 -22 64 -26 136 -26 72 0 93 4 136 26
75 39 107 70 143 137 44 83 51 163 21 250 l-21 65 340 340 341 341 140 -140
c76 -76 141 -137 143 -135 2 3 52 199 111 435 59 237 109 438 112 448 3 9 2
17 -3 16 -4 0 -206 -51 -448 -111z m-2750 -93 c170 -26 334 -85 476 -171 60
-36 60 -36 37 -52 -13 -8 -41 -32 -63 -53 l-40 -39 -85 45 c-553 287 -1231 62
-1514 -502 -212 -424 -126 -943 214 -1283 334 -333 838 -423 1259 -224 173 82
301 183 413 328 179 232 267 545 229 813 l-7 52 72 35 c39 20 74 36 77 36 13
0 29 -215 23 -320 -18 -323 -143 -599 -375 -831 -185 -186 -394 -300 -651
-355 -119 -26 -381 -26 -500 0 -257 55 -466 169 -651 355 -186 185 -300 394
-355 651 -26 119 -26 381 0 500 56 259 167 463 355 651 150 150 290 239 481
307 192 68 402 87 605 57z m2981 -32 c-3 -10 -24 -94 -47 -186 l-42 -169 -139
139 c-78 78 -133 140 -126 142 18 6 341 89 351 90 5 1 6 -7 3 -16z m-3031
-284 c102 -14 191 -42 293 -91 73 -36 83 -44 78 -62 -34 -115 -31 -231 7 -325
l24 -59 -206 -206 c-197 -197 -208 -206 -245 -206 -69 0 -118 -21 -171 -75
-102 -101 -102 -229 0 -330 101 -102 229 -102 330 0 79 78 95 166 49 265 l-25
54 185 185 185 184 35 -27 c54 -41 132 -73 207 -87 l68 -12 7 -75 c26 -282
-73 -549 -281 -757 -137 -137 -276 -216 -461 -262 -105 -26 -334 -24 -441 4
-184 49 -318 126 -453 262 -129 129 -212 277 -257 457 -24 95 -24 333 0 428
45 179 128 327 257 457 221 224 507 321 815 278z m976 -30 c67 -36 98 -68 137
-143 22 -43 26 -64 26 -136 1 -78 -2 -90 -33 -148 -38 -70 -70 -100 -145 -140
-43 -22 -64 -26 -136 -26 -72 0 -93 4 -136 26 -75 40 -107 70 -145 140 -31 58
-34 70 -33 148 0 100 24 160 89 225 100 100 249 121 376 54z m872 -773 c103
-43 128 -177 48 -257 -112 -113 -296 -12 -267 146 18 94 128 150 219 111z
m-1848 -331 c50 -49 15 -135 -55 -135 -41 0 -80 39 -80 80 0 41 39 80 80 80
19 0 40 -9 55 -25z m2099 -947 c55 -16 138 -99 154 -154 7 -23 12 -67 12 -98
l0 -56 -480 0 -480 0 0 56 c0 31 5 75 12 98 15 51 99 137 148 153 51 16 580
17 634 1z m-2074 -385 l0 -83 -160 0 -160 0 0 83 0 82 160 0 160 0 0 -82z
m3017 -109 c25 -25 26 -28 20 -120 -16 -236 -171 -513 -362 -644 -111 -77
-300 -138 -472 -155 -37 -3 -80 -9 -95 -11 -28 -6 -28 -5 -28 52 0 81 -17 129
-67 184 -59 65 -105 80 -251 80 -147 0 -184 -11 -247 -75 -57 -56 -75 -102
-75 -189 0 -57 0 -58 -27 -52 -16 2 -59 8 -96 11 -114 11 -272 52 -359 93
-156 73 -318 230 -318 308 0 17 -13 57 -28 88 l-29 56 29 56 c50 101 34 188
-50 273 -40 40 -50 56 -40 62 7 5 566 9 1241 9 l1228 0 26 -26z m-2562 -159
c30 -29 32 -74 6 -106 l-19 -24 -354 -5 -353 -5 -58 -28 c-39 -20 -78 -51
-124 -102 -67 -74 -116 -105 -168 -105 -25 0 -25 -2 -25 -80 l0 -80 28 0 c16
0 51 7 78 15 27 8 50 15 52 15 1 0 2 -133 2 -295 l0 -295 -240 0 -240 0 0 423
0 424 100 97 c105 102 180 147 271 165 24 5 264 9 532 10 l488 1 24 -25z
m-1895 -695 l0 -560 -80 0 -80 0 0 560 0 560 80 0 80 0 0 -560z m295 535 l25
-24 0 -511 0 -511 -25 -24 c-20 -21 -34 -25 -80 -25 l-55 0 0 560 0 560 55 0
c46 0 60 -4 80 -25z m987 -507 c-2 -266 0 -385 9 -416 14 -50 76 -124 119
-142 l30 -12 0 -145 c0 -139 -1 -145 -25 -168 -23 -24 -31 -25 -135 -25 -104
0 -112 1 -135 25 l-25 24 0 585 0 585 29 20 c39 28 70 40 106 40 l30 1 -3
-372z m613 347 l25 -24 0 -351 0 -351 -25 -24 c-24 -25 -26 -25 -215 -25 -189
0 -191 0 -215 25 l-25 24 0 351 0 351 25 24 c24 25 26 25 215 25 189 0 191 0
215 -25z m2585 -665 l0 -541 -25 -24 -24 -25 -1231 0 -1231 0 -24 25 c-24 23
-25 29 -25 168 l0 145 30 12 c42 17 104 90 118 138 8 25 12 115 12 241 l0 201
62 -51 c151 -122 370 -203 603 -224 143 -12 135 -8 135 -72 0 -86 18 -132 75
-188 63 -64 100 -75 245 -75 145 0 182 11 245 75 57 56 75 102 75 187 0 62 7
68 82 68 70 0 274 41 369 74 54 18 132 53 174 77 93 53 234 184 290 268 22 33
41 61 43 61 1 0 2 -243 2 -540z m-1145 345 c21 -20 25 -34 25 -80 l0 -55 -160
0 -160 0 0 55 c0 46 4 60 25 80 23 24 31 25 135 25 104 0 112 -1 135 -25z m25
-350 c0 -46 -4 -60 -25 -80 -23 -24 -31 -25 -135 -25 -104 0 -112 1 -135 25
-21 20 -25 34 -25 80 l0 55 160 0 160 0 0 -55z"/>
</g>
</svg>
