<?xml version="1.0" standalone="no"?>
<!DOCTYPE svg PUBLIC "-//W3C//DTD SVG 20010904//EN"
 "http://www.w3.org/TR/2001/REC-SVG-20010904/DTD/svg10.dtd">
<svg version="1.0" xmlns="http://www.w3.org/2000/svg"
 width="512.000000pt" height="512.000000pt" viewBox="0 0 512.000000 512.000000"
 preserveAspectRatio="xMidYMid meet">

<g transform="translate(0.000000,512.000000) scale(0.100000,-0.100000)"
fill="#000000" stroke="none">
<path d="M1820 4626 c-132 -36 -244 -132 -309 -268 -58 -121 -73 -210 -69
-411 3 -181 7 -193 72 -241 39 -29 133 -29 172 0 65 48 68 59 75 257 7 225 26
286 107 339 25 17 95 18 1174 18 l1148 0 39 -35 c21 -19 49 -59 62 -88 l24
-52 3 -1565 c2 -1404 1 -1570 -14 -1619 -18 -64 -52 -117 -91 -142 -27 -18
-75 -19 -1175 -19 l-1148 0 -39 35 c-70 64 -84 114 -91 322 -5 198 -9 209 -74
257 -39 29 -133 29 -172 0 -67 -50 -69 -57 -69 -267 0 -218 7 -260 67 -385 65
-138 186 -241 319 -271 28 -7 460 -11 1209 -11 1273 0 1228 -2 1330 57 111 65
215 215 251 363 21 81 21 3239 0 3320 -36 148 -140 298 -251 363 -102 59 -56
57 -1335 56 -890 0 -1181 -3 -1215 -13z"/>
<path d="M1215 3346 c-16 -8 -186 -171 -377 -362 -375 -377 -370 -371 -353
-461 5 -33 52 -84 363 -395 386 -386 379 -380 469 -363 49 9 109 69 118 118
16 85 9 96 -208 314 l-201 203 796 2 c787 3 797 3 824 24 53 39 69 71 69 134
0 63 -16 95 -69 134 -27 21 -37 21 -824 24 l-796 2 201 203 c171 171 202 208
208 240 25 132 -101 237 -220 183z"/>
<path d="M3135 3186 c-41 -18 -83 -69 -90 -109 -3 -18 -5 -262 -3 -544 3 -499
4 -512 24 -539 39 -53 71 -69 134 -69 63 0 95 16 134 69 21 27 21 38 21 566 0
528 0 539 -21 566 -11 15 -32 37 -46 47 -33 25 -113 32 -153 13z"/>
</g>
</svg>
