<?xml version="1.0" standalone="no"?>
<!DOCTYPE svg PUBLIC "-//W3C//DTD SVG 20010904//EN"
 "http://www.w3.org/TR/2001/REC-SVG-20010904/DTD/svg10.dtd">
<svg version="1.0" xmlns="http://www.w3.org/2000/svg"
 width="512.000000pt" height="512.000000pt" viewBox="0 0 512.000000 512.000000"
 preserveAspectRatio="xMidYMid meet">

<g transform="translate(0.000000,512.000000) scale(0.100000,-0.100000)"
fill="#000000" stroke="none">
<path d="M1243 5106 c-188 -46 -335 -208 -363 -401 -13 -96 -13 -4194 0 -4290
29 -197 184 -364 378 -404 75 -15 2530 -15 2604 0 194 40 350 207 378 404 13
96 13 4195 0 4290 -29 198 -183 363 -378 404 -80 17 -2549 14 -2619 -3z m2621
-206 c64 -24 124 -80 157 -148 l24 -47 3 -1852 2 -1853 -1490 0 -1490 0 2
1853 3 1852 23 46 c31 64 96 125 157 149 49 18 87 19 1302 19 1237 1 1253 1
1307 -19z m184 -4264 c2 -118 -1 -174 -13 -219 -25 -97 -82 -162 -173 -197
-52 -20 -71 -20 -1302 -20 -1224 0 -1250 0 -1303 20 -63 24 -127 83 -158 148
-20 42 -23 66 -27 224 -2 98 -2 185 2 193 5 13 172 15 1488 13 l1483 -3 3
-159z"/>
<path d="M2016 4694 c-55 -55 -23 -152 55 -168 41 -8 937 -8 978 0 78 16 110
113 55 168 l-27 26 -517 0 -517 0 -27 -26z"/>
<path d="M1533 3451 c-63 -23 -98 -47 -146 -100 -95 -105 -99 -138 -95 -752 3
-489 4 -495 26 -551 33 -81 106 -158 184 -194 l63 -29 974 -3 c1060 -3 1031
-4 1121 53 55 35 116 110 142 174 23 56 23 57 23 596 l0 540 -23 57 c-31 76
-108 160 -180 195 l-57 28 -990 2 c-949 2 -992 2 -1042 -16z m2024 -207 c15
-12 37 -36 48 -55 19 -33 20 -52 20 -544 0 -492 -1 -511 -20 -544 -11 -19 -33
-43 -48 -55 l-28 -21 -969 0 -969 0 -28 21 c-15 12 -37 36 -48 55 -19 33 -20
55 -23 522 -3 507 -1 541 40 592 44 57 2 55 1040 52 955 -2 957 -2 985 -23z"/>
<path d="M1739 3000 l-30 -29 3 -331 3 -332 28 -24 c38 -33 96 -33 134 0 27
23 28 29 31 125 l4 101 52 0 c108 0 190 48 241 141 24 44 29 66 29 119 -1 36
-8 81 -16 101 -24 55 -78 110 -133 135 -44 21 -65 24 -183 24 l-134 0 -29 -30z
m290 -202 c14 -25 14 -29 -5 -55 -17 -23 -30 -29 -68 -31 l-46 -3 0 61 0 61
52 -3 c45 -3 54 -7 67 -30z"/>
<path d="M2490 3003 c-23 -22 -53 -90 -145 -333 -110 -288 -116 -307 -105
-342 13 -46 43 -68 90 -68 49 0 78 24 106 86 l24 54 104 0 104 0 17 -50 c9
-27 28 -59 42 -70 28 -22 82 -26 114 -10 21 12 49 60 49 86 0 9 -52 154 -115
323 -128 340 -135 351 -210 351 -35 0 -51 -6 -75 -27z m84 -401 c-35 -8 -41 2
-26 38 l15 35 12 -35 c10 -29 10 -36 -1 -38z"/>
<path d="M2884 3015 c-28 -19 -48 -68 -40 -98 3 -13 46 -86 96 -162 l90 -137
0 -150 0 -150 29 -29 c53 -52 135 -33 162 38 5 13 9 86 9 162 l0 139 91 138
c84 129 90 142 86 179 -7 51 -44 85 -93 85 -53 0 -68 -12 -128 -105 -31 -47
-57 -85 -60 -85 -2 0 -27 36 -55 79 -28 44 -61 87 -73 95 -28 20 -87 21 -114
1z"/>
<path d="M2455 591 c-37 -16 -60 -51 -60 -93 0 -33 6 -45 33 -69 31 -28 36
-29 132 -29 95 0 101 1 130 28 40 36 47 77 20 120 -11 18 -32 37 -46 42 -30
12 -181 12 -209 1z"/>
</g>
</svg>
