<?xml version="1.0" standalone="no"?>
<!DOCTYPE svg PUBLIC "-//W3C//DTD SVG 20010904//EN"
 "http://www.w3.org/TR/2001/REC-SVG-20010904/DTD/svg10.dtd">
<svg version="1.0" xmlns="http://www.w3.org/2000/svg"
 width="512.000000pt" height="512.000000pt" viewBox="0 0 512.000000 512.000000"
 preserveAspectRatio="xMidYMid meet">

<g transform="translate(0.000000,512.000000) scale(0.100000,-0.100000)"
fill="#000000" stroke="none">
<path d="M750 5099 c-188 -40 -331 -118 -471 -258 -142 -143 -219 -284 -258
-478 -21 -100 -21 -122 -21 -1803 0 -1681 0 -1703 21 -1803 39 -194 116 -335
258 -478 143 -142 284 -219 478 -258 100 -21 122 -21 1803 -21 1681 0 1703 0
1803 21 194 39 335 116 478 258 142 143 219 284 258 478 21 100 21 122 21
1803 0 1681 0 1703 -21 1803 -39 194 -116 335 -258 478 -143 142 -284 219
-478 258 -100 21 -120 21 -1810 20 -1665 0 -1710 -1 -1803 -20z m3625 -173
c278 -84 474 -282 552 -557 17 -61 18 -149 18 -1809 0 -1660 -1 -1748 -18
-1809 -79 -277 -281 -479 -558 -558 -61 -17 -149 -18 -1809 -18 -1660 0 -1748
1 -1809 18 -277 79 -479 281 -558 558 -17 61 -18 149 -18 1809 0 1660 1 1748
18 1809 87 307 338 531 642 574 17 2 806 4 1755 3 1634 -1 1728 -2 1785 -20z"/>
</g>
</svg>
