<?xml version="1.0" standalone="no"?>
<!DOCTYPE svg PUBLIC "-//W3C//DTD SVG 20010904//EN"
 "http://www.w3.org/TR/2001/REC-SVG-20010904/DTD/svg10.dtd">
<svg version="1.0" xmlns="http://www.w3.org/2000/svg"
 width="512.000000pt" height="512.000000pt" viewBox="0 0 512.000000 512.000000"
 preserveAspectRatio="xMidYMid meet">

<g transform="translate(0.000000,512.000000) scale(0.100000,-0.100000)"
fill="#000000" stroke="none">
<path d="M4900 5100 c-34 -18 -479 -456 -470 -462 3 -2 31 -21 63 -42 50 -34
125 -119 140 -159 6 -16 444 419 468 465 25 48 24 91 -2 138 -41 72 -128 99
-199 60z"/>
<path d="M2760 5006 c-119 -32 -83 2 -1398 -1310 -689 -688 -1266 -1271 -1282
-1295 -97 -144 -104 -336 -18 -478 41 -68 1805 -1830 1868 -1866 90 -52 205
-68 312 -46 136 29 70 -32 1435 1332 1253 1253 1262 1263 1299 1339 30 65 37
93 41 162 6 84 4 92 -177 815 -100 402 -187 737 -194 746 -9 13 -59 -33 -309
-283 l-298 -298 16 -44 c9 -25 19 -79 22 -120 17 -232 -145 -433 -380 -472
-288 -48 -557 221 -509 509 39 235 240 397 472 380 41 -3 95 -13 120 -22 l44
-16 298 298 c250 250 296 300 283 309 -9 7 -342 93 -740 193 -770 192 -796
197 -905 167z m-460 -1589 c198 -72 327 -287 292 -487 -26 -148 -119 -273
-250 -337 -66 -33 -85 -38 -168 -41 -79 -4 -106 -1 -166 19 -183 59 -308 230
-308 423 0 313 308 530 600 423z m963 -921 c71 -29 110 -111 87 -180 -12 -38
-68 -93 -103 -101 -37 -9 -1908 -215 -1952 -215 -112 0 -184 130 -122 220 50
74 -14 63 1034 180 527 59 973 108 991 109 18 0 47 -5 65 -13z m-788 -551
c217 -56 365 -283 328 -500 -42 -246 -274 -418 -508 -378 -223 38 -384 223
-385 443 -1 292 280 508 565 435z"/>
<path d="M2109 3141 c-43 -14 -76 -41 -93 -76 -49 -102 22 -215 134 -215 119
0 188 135 118 232 -33 47 -107 74 -159 59z"/>
<path d="M2292 1643 c-105 -52 -107 -210 -2 -263 50 -25 83 -25 136 1 31 15
48 32 63 63 27 54 26 91 -2 140 -39 69 -123 95 -195 59z"/>
<path d="M3561 3763 c-91 -45 -105 -173 -26 -242 46 -40 93 -48 150 -26 115
43 128 201 23 265 -40 24 -101 25 -147 3z"/>
</g>
</svg>
